<?xml version="1.0" encoding="UTF-8" standalone="no"?>
<!-- Created with Inkscape (http://www.inkscape.org/) -->

<svg
   version="1.1"
   id="svg1"
   width="692"
   height="723"
   viewBox="0 0 692 723"
   sodipodi:docname="logo.svg"
   inkscape:version="1.4 (86a8ad7, 2024-10-11)"
   xmlns:inkscape="http://www.inkscape.org/namespaces/inkscape"
   xmlns:sodipodi="http://sodipodi.sourceforge.net/DTD/sodipodi-0.dtd"
   xmlns="http://www.w3.org/2000/svg"
   xmlns:svg="http://www.w3.org/2000/svg">
  <sodipodi:namedview
     id="namedview1"
     pagecolor="#ffffff"
     bordercolor="#000000"
     borderopacity="0.25"
     inkscape:showpageshadow="2"
     inkscape:pageopacity="0.0"
     inkscape:pagecheckerboard="0"
     inkscape:deskcolor="#d1d1d1"
     inkscape:zoom="1"
     inkscape:cx="369.5"
     inkscape:cy="353.5"
     inkscape:window-width="1920"
     inkscape:window-height="991"
     inkscape:window-x="-9"
     inkscape:window-y="-9"
     inkscape:window-maximized="1"
     inkscape:current-layer="svg1" />
  <defs
     id="defs1" />
  <g
     id="g1"
     style="fill:#388a89;fill-opacity:1;stroke:#000000;stroke-opacity:1"
     transform="translate(11,3.034929)">
    <circle
       style="fill:#ffffff;fill-opacity:0;stroke:#000000;stroke-width:1.05181"
       id="path2"
       cx="352"
       cy="373"
       r="303.97409"
       transform="translate(-11,-3.034929)" />
    <path
       style="fill:#388a89;fill-opacity:1;stroke:#000000;stroke-opacity:1"
       d="m 322.16768,712.90583 c -9.55329,-2.19778 -16.50445,-5.39236 -34.85792,-16.01981 -9.35,-5.41405 -20.15,-11.63494 -24,-13.82419 -3.85,-2.18926 -17.8,-10.25744 -31,-17.9293 -13.2,-7.67187 -28.725,-16.67371 -34.5,-20.0041 -5.77499,-3.33039 -12.52499,-7.2699 -14.99999,-8.75448 -2.475,-1.48457 -12.6,-7.32782 -22.5,-12.98499 -9.9,-5.65717 -20.025,-11.50042 -22.5,-12.98499 -2.475,-1.48458 -9.45,-5.53977 -15.5,-9.01154 -6.05,-3.47178 -16.175,-9.33565 -22.500005,-13.03084 -6.325,-3.69519 -14.65,-8.50719 -18.5,-10.69333 -3.85,-2.18615 -12.83799,-7.30583 -19.97331,-11.37706 -20.2442,-11.55083 -30.51624,-22.90835 -37.68928,-41.67204 l -3.33737,-8.7302 -0.281,-145.5 c -0.1692,-87.65176 0.094,-147.92881 0.6618,-151.60895 1.8033,-11.68537 8.72314,-25.41253 17.96984,-35.64753 4.97841,-5.5105 13.0996,-11.51208 23.64932,-17.4769 4.95,-2.79873 20.7,-11.70307 35,-19.78741 14.300005,-8.08434 27.800005,-15.72312 30.000005,-16.97506 2.2,-1.25194 5.8,-3.3012 8,-4.55389 2.2,-1.2527 9.175,-5.18092 15.5,-8.72937 6.325,-3.54845 11.95,-6.78498 12.5,-7.1923 0.55,-0.40732 3.475,-2.08308 6.5,-3.72391 3.025,-1.64083 15.625,-8.749864 27.99999,-15.797844 25.42431,-14.48002 25.14683,-14.32284 41.5,-23.5065 11.61409,-6.522273 29.90839,-16.865173 34,-19.222303 38.94783,-22.4374 43.71202,-24.2707 63,-24.2429 16.36046,0.0236 27.78635,3.24077 42.5,11.9667 3.025,1.79398 12.925,7.42486 22.00001,12.51307 25.77516,14.45172 47.73588,26.890143 56.78068,32.160233 4.55437,2.65368 8.44864,4.82487 8.65393,4.82487 0.20529,0 3.00399,1.51051 6.21932,3.3567 23.93316,13.741954 23.22271,13.338204 40.34607,22.928784 6.875,3.8506 20.15,11.35107 29.5,16.6677 9.35,5.31664 31.62262,17.96466 49.49471,28.10671 27.71633,15.72846 33.58539,19.46946 39.91167,25.4401 13.34918,12.59874 20.03818,26.07027 21.99085,44.28922 1.46229,13.64358 1.53285,268.1579 0.0786,283.49353 -1.06998,11.28327 -4.18345,21.06115 -9.75503,30.63575 -4.40458,7.56914 -18.71814,21.1047 -27.72078,26.21405 -21.1287,11.99135 -56.67168,32.56134 -62.34089,36.0789 -3.48749,2.16387 -11.36249,6.76387 -17.5,10.22222 -10.92222,6.15443 -27.16019,15.47056 -47.15912,27.05637 -13.39746,7.76143 -55.64129,32.09451 -63,36.28893 -1.1,0.627 -11.675,6.71869 -23.5,13.53709 -41.74795,24.07224 -45.54817,25.64289 -63.50001,26.24493 -7.178,0.24072 -13.13409,-0.12206 -17.14208,-1.04412 z M 433.7642,650.88546 c 30.03921,-6.26621 76.99746,-27.97037 99.54557,-46.01007 36.59396,-29.27713 61.98635,-64.99713 70.3668,-98.98643 3.42588,-13.8946 5.37852,-20.11829 9.09853,-29 14.77683,-35.28038 22.91901,-86.03481 20.11867,-125.40994 -3.92308,-55.16158 -19.99282,-102.99032 -49.42007,-147.09006 -8.21907,-12.31713 -10.47863,-15.22635 -25.24235,-32.5 -15.04279,-17.60016 -16.73286,-18.86086 -13.96833,-10.41958 0.79608,2.43077 1.91052,6.23331 2.47653,8.45008 1.44013,5.64033 9.60301,15.13665 23.95182,27.86448 6.68879,5.93315 12.82675,12.07413 13.63991,13.64662 1.77642,3.43521 1.81583,8.20633 0.10706,12.9584 -1.13181,3.14755 -1.0109,4.0035 1.20069,8.5 14.36884,29.21395 25.29701,64.60938 29.81441,96.56643 2.23152,15.78622 2.53112,60.16058 0.51267,75.93357 -13.18811,103.05744 -71.72826,188.73072 -159.15634,232.92468 -6.325,3.19722 -13.231,6.37137 -15.34667,7.05368 -2.11567,0.6823 -5.01605,1.84724 -6.4453,2.58874 -1.42925,0.7415 -4.76075,1.90232 -7.40333,2.57959 -2.64259,0.67728 -4.8047,1.62666 -4.8047,2.10975 0,0.48308 0.7875,0.6346 1.75,0.3367 0.9625,-0.2979 5.1045,-1.24139 9.20443,-2.09664 z m -34.45443,-5.58747 c 7.7,-1.12196 16.475,-2.72504 19.5,-3.56239 8.94911,-2.47721 25,-8.5032 25,-9.38576 0,-0.44933 -2.5875,-1.10239 -5.75,-1.45123 -12.6822,-1.39894 -14.81368,-2.79392 -6,-3.92681 8.10982,-1.04243 27.91483,-8.1671 41.87862,-15.06546 13.02742,-6.43577 26.17761,-14.77548 38.37138,-24.33471 10.15941,-7.96441 29.01917,-27.27455 36.80378,-37.68267 6.12329,-8.18692 19.58628,-32.5 17.99637,-32.5 -0.36524,0 -4.29469,2.41022 -8.73211,5.35605 -4.43742,2.94583 -9.64304,6.15739 -11.56804,7.1368 -3.4201,1.74011 -3.46339,1.73768 -1.89641,-0.10605 14.21197,-16.72199 21.89933,-31.43266 27.63707,-52.8868 2.48025,-9.27396 2.67335,-11.45207 2.65961,-30 -0.0118,-15.88837 -0.37526,-21.33628 -1.76809,-26.5 -0.9643,-3.575 -2.19337,-8.1875 -2.73127,-10.25 -0.5379,-2.0625 -1.32208,-3.75 -1.74262,-3.75 -0.42054,0 -1.81431,3.25917 -3.09726,7.24259 -9.49638,29.48533 -33.81205,58.97467 -66.87777,81.10741 -26.33124,17.62498 -53.83733,27.99996 -85.18326,32.13013 -24.62059,3.24404 -40.89465,2.70396 -65.48695,-2.17329 -39.9782,-7.92864 -80.91009,-28.92421 -104.85195,-53.78269 -6.38989,-6.63453 -14.0378,-16.52415 -12.77857,-16.52415 0.54968,0 1.29798,0.48308 1.66289,1.0735 0.79685,1.28933 12.6956,8.99696 18.09933,11.72418 8.70074,4.39117 8.79535,3.82729 1.02561,-6.11229 -6.64511,-8.50088 -15.9827,-25.29429 -18.17397,-32.68539 -0.40765,-1.375 -1.07282,-2.95 -1.47816,-3.5 -0.71788,-0.97408 -4.80525,-17.63318 -6.94995,-28.32629 -1.3897,-6.92878 -1.37708,-32.50905 0.0194,-39.34742 3.35647,-16.43602 5.48009,-25.01926 7.62688,-30.82629 17.62367,-47.67157 59.39202,-81.81009 108.83768,-88.95626 9.06227,-1.30973 27.25047,-1.30402 35.35572,0.0111 3.52439,0.57185 14.99939,3.91772 25.50001,7.43526 24.18262,8.1008 38.5707,10.4476 53.10377,8.66159 17.61188,-2.16437 28.03232,-1.57472 44.35556,2.50994 18.49395,4.62784 32.54763,5.17542 40.46219,1.57655 5.8672,-2.6679 12.89025,-8.0736 12.11624,-9.32597 -0.31008,-0.50171 -4.69972,-0.91885 -9.75476,-0.92698 -10.99899,-0.0177 -19.51627,-1.87091 -27.95125,-6.08173 -6.14235,-3.06634 -11.73972,-7.43275 -11.73972,-9.15798 0,-1.32715 4.03159,0.13775 8.27175,3.0056 2.07446,1.40306 7.47446,3.88873 12,5.5237 7.43101,2.68465 9.74674,3.02169 23.90049,3.47855 14.67285,0.47361 15.88944,0.37163 19.07829,-1.59919 3.52141,-2.17635 5.74947,-5.76402 5.74947,-9.25794 0,-1.877 -0.1467,-1.9069 -2.22251,-0.45294 -1.22237,0.85618 -3.24737,1.5567 -4.5,1.5567 -1.76972,0 -2.27749,-0.56394 -2.27749,-2.52942 0,-1.44092 -1.72133,-4.70707 -4,-7.5898 -5.57939,-7.05846 -5.34216,-12.50775 0.68426,-15.71744 1.20134,-0.63984 3.56384,-1.16334 5.25,-1.16334 1.68616,0 3.06574,-0.40991 3.06574,-0.91091 0,-0.501 -4.49375,-5.05751 -9.98612,-10.12558 -11.50753,-10.61855 -16.68861,-17.82195 -19.11675,-26.57857 -3.40576,-12.28225 -7.5911,-18.9441 -19.39713,-30.87468 -21.49392,-21.72068 -44.20417,-33.246 -69.31315,-35.17602 -7.96602,-0.61232 -8.39053,-0.54429 -7.85723,1.25923 2.03545,6.88364 1.8917,14.40653 -0.27528,14.40653 -0.49916,0 -2.37482,-2.5875 -4.16814,-5.75 -9.81094,-17.301484 -22.30862,-28.688884 -36.69488,-33.434954 -16.0782,-5.30423 -26.62933,0.94025 -32.77846,19.39927 -2.42097,7.267484 -2.76954,9.883214 -2.83651,21.285684 -0.0653,11.11661 0.26781,14.05045 2.29925,20.25065 2.53473,7.73632 6.9099,14.71959 11.46892,18.30572 l 2.79853,2.20132 -3.57252,2.94478 c -1.96489,1.61962 -4.67613,4.82793 -6.02498,7.12958 -4.65954,7.95089 -5.61483,24.63329 -2.00978,35.09702 1.74304,5.05921 0.38742,6.67618 -2.36108,2.81627 -4.49837,-6.31738 -6.35095,-13.19312 -6.39787,-23.74534 -0.0408,-9.16598 0.22388,-10.59528 3.17293,-17.13748 l 3.21739,-7.13748 -2.62681,-4.16114 c -1.44474,-2.28862 -3.07943,-5.37676 -3.63262,-6.86252 -1.95796,-5.25863 -3.40375,-8.20138 -4.02939,-8.20138 -1.65724,0 -3.05051,3.39475 -3.76114,9.16416 -0.77415,6.28512 -0.79081,6.31182 -2.08055,3.33584 -0.71508,-1.65 -1.52404,-7.84691 -1.7977,-13.7709 -0.27366,-5.924 -0.88007,-11.00731 -1.34759,-11.29625 -0.46751,-0.28893 -1.86123,0.0159 -3.09716,0.67729 -4.55977,2.44032 -9.26815,2.80655 -18.29419,1.42298 -26.36807,-4.04189 -47.6838,-2.50148 -76.91604,5.55841 -6.00382,1.65537 -12.75382,3.83335 -15,4.83996 -2.24618,1.00661 -5.20896,2.1678 -6.58396,2.58043 -3.90567,1.17204 -24.74367,11.72963 -32.5,16.46614 -41.91671,25.59705 -81.29507,72.26018 -100.018995,118.52194 -5.53321,13.67107 -12.01847,35.5 -10.54687,35.5 0.44368,0 3.82729,-4.08772 7.51913,-9.08382 3.69183,-4.99611 6.869985,-8.92627 7.062565,-8.7337 0.19257,0.19258 -1.616085,5.9678 -4.019215,12.83383 -18.54742,52.99202 -21.52214,104.82879 -8.86526,154.48369 2.5834,10.13507 8.84528,27.10628 12.36053,33.5 l 1.924295,3.5 0.0419,-17.91667 c 0.0231,-9.85416 0.28098,-17.67761 0.57316,-17.38543 0.29218,0.29218 2.27883,6.55468 4.41479,13.91667 16.37455,56.43807 53.84575,103.69595 107.55396,135.6448 22.5702,13.4261 53.27583,25.82237 68.26674,27.56019 l 4.26674,0.49462 -2.31137,-1.81813 c -1.27125,-0.99997 -5.05297,-3.42493 -8.40382,-5.38881 -7.75281,-4.54379 -17.04845,-11.86385 -15.65541,-12.3282 0.58653,-0.19551 4.62933,1.21105 8.98401,3.12569 39.81099,17.50387 86.58431,23.80895 129.85312,17.5043 z m 86.85819,-450.85371 c -4.64075,-1.12033 -9.85301,-4.65115 -11.18648,-7.57781 -2.63354,-5.77999 -0.9019,-12.41841 4.05336,-15.53895 7.05867,-4.44513 20.2753,0.2741 24.25499,8.66066 1.5027,3.16671 2.47651,12.87957 1.38532,13.81737 -0.93375,0.8025 -15.71555,1.31266 -18.50719,0.63873 z m 9.12904,-13.03465 c 0.97805,-1.58253 -1.47329,-5.17 -3.29322,-4.81952 -2.11355,0.40704 -2.82936,3.78126 -1.0424,4.91371 1.80317,1.14272 3.59522,1.10379 4.33562,-0.0942 z M 393.28339,141.9801 c -2.48213,-5.94058 -3.61526,-12.9259 -2.91855,-17.99164 0.76287,-5.54669 3.03287,-11.5995 4.35019,-11.5995 2.18544,0 11.05265,9.44383 13.92205,14.82739 1.74498,3.27391 3.17269,6.40925 3.17269,6.96743 0,0.60676 -1.6085,0.79912 -4,0.47835 -4.98138,-0.66814 -5.24531,0.84678 -0.92425,5.30499 l 3.07576,3.17337 -3.22498,1.12424 c -1.77374,0.61832 -5.20579,1.12423 -7.62678,1.12423 -4.06301,0 -4.51144,-0.26238 -5.82613,-3.40886 z M 212.76416,636.03507 c -23.89649,-12.30634 -44.02631,-26.94 -64.81557,-47.11863 -38.86795,-37.7263 -65.175785,-81.44658 -80.666525,-134.05754 -8.73892,-29.67987 -11.91818,-55.79181 -11.13692,-91.46994 0.7518,-34.3328 3.70231,-52.92423 13.48974,-85 22.30986,-73.11478 74.650795,-134.91758 142.674875,-168.46676 30.11769,-14.853904 52.75164,-21.359554 95.99772,-27.592514 5.00092,-0.72077 17.64092,-1.0193 33.73301,-0.79671 l 25.73528,0.35599 3.60072,-3.60039 3.60072,-3.60039 -15.69553,-1.30155 c -42.18018,-3.49778 -89.68692,3.35589 -128.55984,18.547 -9.14604,3.57417 -35.01034,15.936734 -43.72877,20.901394 -23.30181,13.26909 -53.87995,38.39827 -70.99969,58.3477 -16.810745,19.58936 -24.014455,29.42633 -34.648365,47.31375 -23.65021,39.78229 -37.28042,84.88917 -40.67133,134.59482 -2.78308,40.79586 5.94464,90.63581 22.91295,130.84528 4.14036,9.81133 12.77286,26.99619 16.50199,32.85076 1.71603,2.69411 3.81781,6.20469 4.6706,7.80129 5.57247,10.43272 20.114705,29.37179 34.931855,45.49348 25.97225,28.25893 60.87608,53.58934 93.61868,67.94099 8.62027,3.77841 8.2859,2.56006 -0.5456,-1.98803 z m 411.68566,-92.86625 c 7.73253,-3.85616 10.62866,-12.54711 6.4595,-19.3842 -2.07172,-3.39745 -6.06758,-4.75205 -11.06781,-3.75201 l -2.96827,0.59366 -0.28173,-12.36866 -0.28173,-12.36865 -2.89149,-0.33008 c -1.64131,-0.18736 -3.2576,0.24501 -3.73823,1 -0.92952,1.46013 -1.0526,46.19138 -0.13369,48.58603 0.80215,2.09037 8.90309,1.01624 14.90345,-1.97609 z m -7.64004,-9.71247 c 0,-5.04547 0.29774,-6.02711 1.99105,-6.56455 3.29306,-1.04518 4.28358,0.36827 3.72583,5.31666 -0.46835,4.15514 -2.53624,7.1805 -4.90801,7.1805 -0.44488,0 -0.80887,-2.66968 -0.80887,-5.93261 z M 440.30977,91.003426 c -2.75,-1.27357 -6.35,-2.64219 -8,-3.04138 l -3,-0.7258 2.93709,3.07636 c 2.53715,2.65745 3.62651,3.0716 8,3.04138 l 5.06291,-0.035 z"
       id="path1" />
  </g>
</svg>
